<?xml version="1.0"?>
<svg version="1.1" xmlns="http://www.w3.org/2000/svg" width="400px" height="200px" style="border: dashed 2px #aaa"><path fill="#1a00ff" d="M99.38,94l-18.84,0l-3.72,0l0,42.18l3.72,0l0-21.12l18.84,0q4.56,0,7.56-3t3-7.5q0-4.08-3-7.26q-3.18-3.3-7.56-3.3z M99.38,111.34l-18.84,0l0-13.62l18.84,0q2.76,0,4.86,1.98q1.98,2.1,1.98,4.86q0,2.82-1.98,4.8q-2.1,1.98-4.86,1.98z M117.4304,136.06l3.78,0l0-42.18l-3.78,0l0,42.18z M130.8008,136.12l29.34,0l0-3.06l-25.62,0l0-39.06l-3.72,0l0,42.12z M167.3312,136.06l3.78,0l0-42.18l-3.78,0l0,42.18z M213.5816,93.88l-3.78,0l0,19.2l-25.32,0l0-19.2l-3.78,0l0,42.12l3.78,0l0-19.14l25.32,0l0,19.14l3.78,0l0-42.12z M256.172,93.94l-3.78,0l0,25.62q0,5.52-3.84,9.24q-3.78,3.6-9,3.6q-5.7,0-9.18-3.6q-3.54-3.66-3.54-9.24l0-25.62l-3.84,0l0,25.62q0,6.84,4.68,11.64q4.74,4.92,11.88,4.92q6.66,0,11.7-4.92q4.92-4.8,4.92-11.64l0-25.62z M265.2224,136l3.72,0l0-25.44q0-5.04,3.84-9q3.84-3.84,8.88-3.84t9,3.84q3.84,3.96,3.84,9l0,25.44l3.72,0l0-25.44q0-6.84-4.86-11.7t-11.7-4.86q-6.72,0-11.58,4.86t-4.86,11.7l0,25.44z M338.0528,94l-32.52,0l0,3.66l14.76,0l0,38.46l3.72,0l0-38.46l14.04,0l0-3.66z"/><path fill="#" d=""/></svg>
